<svg width="18" height="19" viewBox="0 0 18 19" fill="none" xmlns="http://www.w3.org/2000/svg">
<path fill-rule="evenodd" clip-rule="evenodd" d="M9.31976 0.298383C8.66811 -0.0994608 7.84869 -0.0994613 7.19703 0.298383L0.975489 4.09674C-0.337824 4.89854 -0.321968 6.81112 1.00446 7.59103L7.24937 11.2629C7.88804 11.6385 8.68025 11.6376 9.31808 11.2606L15.5236 7.5932C16.8465 6.81134 16.8602 4.90197 15.5486 4.10122L9.31976 0.298383ZM16.0015 9.2958C16.4906 9.01791 17.1123 9.18906 17.3902 9.67808C17.6482 10.1322 17.5191 10.7007 17.1078 11.0021L17.0079 11.0667L10.2918 14.8832C9.44677 15.3677 8.41543 15.4011 7.54179 14.9813L7.35712 14.8844L0.720247 11.0639C0.232783 10.7833 0.0650922 10.1606 0.3457 9.67316C0.606264 9.22052 1.16175 9.04359 1.63007 9.2453L1.73642 9.29862L8.36984 13.1171C8.61454 13.2567 8.91302 13.2739 9.17319 13.1674L9.28208 13.1142L16.0015 9.2958ZM15.9028 13.0231C16.3918 12.7452 17.0135 12.9164 17.2914 13.4054C17.5495 13.8595 17.4203 14.428 17.009 14.7293L16.9091 14.794L10.1931 18.6105C9.34803 19.095 8.31669 19.1283 7.44305 18.7086L7.25838 18.6117L0.621504 14.7912C0.134039 14.5106 -0.0336509 13.8879 0.246957 13.4005C0.507521 12.9478 1.06301 12.7709 1.53132 12.9726L1.63767 13.0259L8.27109 16.8444C8.5158 16.984 8.81428 17.0012 9.07445 16.8947L9.18333 16.8415L15.9028 13.0231Z" fill="#7D8592"/>
</svg>
