<svg width="20" height="20" viewBox="0 0 20 20" fill="none" xmlns="http://www.w3.org/2000/svg">
<path fill-rule="evenodd" clip-rule="evenodd" d="M10.5647 3.16451e-05H10.0426C8.50244 -0.00388913 6.98058 0.356577 5.60357 1.05211C2.24703 2.72964 0.123554 6.16334 0.122101 9.92017L0.128672 10.3048C0.171063 11.4572 0.417091 12.5932 0.854371 13.6595L0.964817 13.9149L0.238713 15.6672C-0.0880902 16.4557 -0.0790018 17.3435 0.263877 18.1251L0.34269 18.2916C1.09056 19.7593 2.86337 20.4058 4.39123 19.7356L6.05976 19.0025L6.30359 19.1088C7.48851 19.5946 8.75965 19.8444 10.0453 19.841C13.7998 19.8396 17.2335 17.7161 18.913 14.3556C19.6066 12.9825 19.967 11.4607 19.9631 9.9179L19.9631 9.39845C19.6886 4.39701 15.8082 0.429041 10.9011 0.0209017L10.5647 3.16451e-05ZM10.0399 2.08855L10.5208 2.08759L10.5071 2.08696C14.4825 2.30636 17.6568 5.48062 17.8761 9.45598L17.8746 9.92058C17.8777 11.1371 17.5941 12.3345 17.0468 13.418C15.7189 16.0749 13.0081 17.7514 10.0422 17.7525C8.82602 17.7557 7.62863 17.4721 6.54518 16.9248C6.26691 16.7843 5.94039 16.7754 5.65489 16.9006L3.55226 17.823C3.02411 18.0546 2.40815 17.8143 2.17648 17.2862C2.06218 17.0256 2.05915 16.7297 2.16809 16.4669L3.07088 14.2886C3.18738 14.0075 3.17548 13.6896 3.0383 13.418C2.49104 12.3345 2.20745 11.1371 2.21061 9.9233C2.21177 6.95506 3.88819 4.24424 6.54122 2.91831C7.6286 2.36908 8.82602 2.08546 10.0399 2.08855Z" fill="white"/>
</svg>
