<svg width="23" height="15" viewBox="0 0 23 15" fill="none" xmlns="http://www.w3.org/2000/svg">
<path fill-rule="evenodd" clip-rule="evenodd" d="M13.0884 4.05209C13.8165 6.45799 12.8787 9.05562 10.7799 10.4461C12.5222 11.0872 14.028 12.2412 15.0978 13.7551C15.2616 13.9871 15.2821 14.2908 15.1511 14.5426C15.0201 14.7944 14.7594 14.9525 14.475 14.9525L0.761859 14.953C0.477421 14.953 0.216667 14.795 0.0856429 14.5432C-0.0453811 14.2913 -0.0248509 13.9877 0.138884 13.7557C1.20876 12.2415 2.71473 11.0873 4.45719 10.4461C2.35844 9.05562 1.42062 6.45799 2.14873 4.05209C2.87684 1.64619 5.099 0 7.61857 0C10.1381 0 12.3603 1.64619 13.0884 4.05209ZM20.5691 3.32331C21.7425 5.87144 20.8832 8.89234 18.543 10.4461C20.2852 11.0872 21.791 12.2412 22.8609 13.7551C23.0246 13.9871 23.0452 14.2907 22.9142 14.5426C22.7832 14.7944 22.5225 14.9525 22.2381 14.9525L17.9795 14.953C17.6835 14.9531 17.4143 14.7821 17.2891 14.5146C16.7038 13.2629 15.8797 12.1368 14.8628 11.1992C14.8477 11.1852 14.8339 11.1704 14.8201 11.1555C14.5542 10.9134 14.2763 10.6847 13.9875 10.4702C13.6711 10.2355 13.5866 9.79864 13.7928 9.46331C15.3337 6.95358 15.1889 3.7612 13.427 1.40053C13.2772 1.19986 13.2361 0.938529 13.3169 0.701728C13.3978 0.464927 13.5904 0.283004 13.8318 0.215273C16.5383 -0.542981 19.3957 0.775184 20.5691 3.32331Z" fill="#7D8592"/>
</svg>
